#!OML:ASF F:\VICON\USERDATA\INSTALL\rory3\rory3.ASF
:FULLY-SPECIFIED
:DEGREES
78
root 1.33365 17.7358 -13.3138 -6.33786 -0.414184 -7.98023
lowerback 15.8788 0.538733 4.83524
upperback -0.0392056 1.94919 3.66257
thorax -8.95847 0.812273 0.759368
lowerneck -12.8155 -2.16502 -3.59755
upperneck 25.2252 -2.38493 0.724285
head 10.2104 -1.35435 0.569224
rclavicle 5.65294e-016 -6.95746e-015
rhumerus -32.4052 -5.63047 -79.918
rradius 32.7343
rwrist -1.21834
rhand -14.7621 10.4337
rfingers 7.12502
rthumb 11.3942 -19.2367
lclavicle 5.65294e-016 -6.95746e-015
lhumerus -40.3723 6.83544 84.8532
lradius 35.3564
lwrist 5.22556
lhand -13.3931 50.3975
lfingers 7.12502
lthumb 12.7143 79.9905
rfemur 4.69864 4.52302 37.2118
rtibia 22.8068
rfoot -15.9372 -8.29159
rtoes 14.5216
lfemur -29.5785 -0.829872 -12.0844
ltibia 57.8729
lfoot -7.56167 2.67471
ltoes -14.2709
79
root 1.33939 17.7392 -13.1761 -6.11656 -0.754163 -8.06091
lowerback 15.8075 0.660758 5.00568
upperback -0.138195 2.14285 3.65844
thorax -9.01709 0.895364 0.61562
lowerneck -12.5194 -2.11747 -3.67008
upperneck 25.0139 -2.3342 0.812393
head 10.0774 -1.32733 0.622213
rclavicle -3.16099e-014 -2.14687e-014
rhumerus -32.1923 -5.27108 -80.0785
rradius 32.885
rwrist -1.81184
rhand -14.4914 10.3728
rfingers 7.12502
rthumb 11.6553 -19.283
lclavicle -3.16099e-014 -2.14687e-014
lhumerus -40.439 6.75939 84.882
lradius 35.5255
lwrist 5.27662
lhand -13.2726 50.7749
lfingers 7.12502
lthumb 12.8304 80.3606
rfemur 5.2091 4.47523 37.2685
rtibia 22.4206
rfoot -16.0981 -7.99438
rtoes 14.4113
lfemur -29.7895 -0.951351 -11.9431
ltibia 55.5724
lfoot -8.0888 3.82528
ltoes -15.2455
80
root 1.34265 17.7332 -13.0379 -5.73414 -0.850744 -8.0615
lowerback 15.6819 0.735464 5.1488
upperback -0.454013 2.27039 3.56179
thorax -9.28068 0.939147 0.404463
lowerneck -12.3576 -2.12348 -3.45039
upperneck 25.2563 -2.34573 0.600591
head 10.1281 -1.33806 0.510238
rclavicle -1.28488e-014 -9.74045e-015
rhumerus -32.4993 -4.93859 -80.2776
rradius 33.3564
rwrist -1.55228
rhand -14.0262 8.90628
rfingers 7.12502
rthumb 12.1038 -20.7236
lclavicle -1.28488e-014 -9.74045e-015
lhumerus -40.6161 6.54209 84.8162
lradius 35.4249
lwrist 5.31614
lhand -13.2502 51.0608
lfingers 7.12502
lthumb 12.852 80.6452
rfemur 5.5678 4.46578 37.2748
rtibia 21.9299
rfoot -16.1767 -7.88759
rtoes 14.2011
lfemur -29.9922 -1.33549 -11.8533
ltibia 53.1336
lfoot -8.13054 4.8234
ltoes -12.6345
81
root 1.34359 17.7164 -12.8999 -5.50632 -0.991393 -8.0847
lowerback 15.4832 0.86048 5.23904
upperback -0.324656 2.42397 3.51988
thorax -9.01532 1.01439 0.275877
lowerneck -13.8786 -2.29916 -2.85117
upperneck 26.0868 -2.4718 -0.197469
head 10.7122 -1.43205 0.0882443
rclavicle -2.57038e-014 -1.47101e-014
rhumerus -32.0896 -5.13315 -80.2543
rradius 33.6939
rwrist -1.08516
rhand -15.135 10.1319
rfingers 7.12502
rthumb 11.0346 -19.558
lclavicle -2.57038e-014 -1.47101e-014
lhumerus -40.1029 6.43813 84.9153
lradius 35.514
lwrist 5.39504
lhand -13.3611 50.9917
lfingers 7.12502
lthumb 12.7451 80.5827
rfemur 6.13309 4.46243 37.3488
rtibia 21.3724
rfoot -16.1153 -7.93614
rtoes 13.9235
lfemur -29.9075 -1.63728 -11.7139
ltibia 50.5734
lfoot -8.41539 5.51772
ltoes -10.9123
82
root 1.34355 17.7199 -12.7591 -5.38961 -1.1662 -8.06924
lowerback 15.3547 0.910542 5.19336
upperback -0.407913 2.48205 3.57096
thorax -9.03635 1.04463 0.345972
lowerneck -12.573 -2.27769 -3.44498
upperneck 25.2705 -2.48646 0.337357
head 10.1754 -1.43199 0.396604
rclavicle -3.89571e-014 -6.55989e-015
rhumerus -32.1077 -4.6808 -80.2253
rradius 34.0025
rwrist -1.10572
rhand -15.2102 10.0261
rfingers 7.12502
rthumb 10.962 -19.6677
lclavicle -3.89571e-014 -6.55989e-015
lhumerus -40.3465 6.6178 84.9902
lradius 35.8445
lwrist 5.52285
lhand -13.6648 51.3961
lfingers 7.12502
lthumb 12.4523 81.0052
rfemur 6.8874 4.30971 37.3306
rtibia 20.7045
rfoot -15.973 -7.97674
rtoes 13.1877
lfemur -29.8598 -1.9378 -11.6077
ltibia 47.8788
lfoot -8.95875 6.21023
ltoes -12.2936
83
root 1.34671 17.7417 -12.6144 -5.09961 -1.37325 -8.02768
lowerback 15.2787 0.953325 5.21446
upperback -0.629835 2.55007 3.55572
thorax -9.23366 1.06946 0.304173
lowerneck -12.0898 -2.09833 -3.66835
upperneck 24.8729 -2.28779 0.675451
head 9.94131 -1.32168 0.583991
rclavicle -2.37175e-014 -5.40694e-014
rhumerus -32.0538 -4.16794 -80.3291
rradius 34.1484
rwrist -1.32083
rhand -14.6965 9.59254
rfingers 7.12502
rthumb 11.4575 -20.0744
lclavicle -2.37175e-014 -5.40694e-014
lhumerus -40.6101 7.02937 84.7489
lradius 35.7057
lwrist 5.46437
lhand -13.6462 49.9611
lfingers 7.12502
lthumb 12.4703 79.5691
rfemur 7.58656 4.3246 37.2552
rtibia 19.8111
rfoot -15.7488 -8.04769
rtoes 13.1268
lfemur -29.9773 -2.38413 -11.4958
ltibia 45.0469
lfoot -9.12005 7.28667
ltoes -12.332
84
root 1.3529 17.7519 -12.4706 -4.71541 -1.64466 -7.91795
lowerback 15.1943 1.038 5.23885
upperback -0.830401 2.66426 3.45787
thorax -9.39673 1.11456 0.160812
lowerneck -12.2667 -1.99133 -3.52846
upperneck 24.9649 -2.15234 0.638891
head 10.0024 -1.25017 0.562285
rclavicle -1.59631e-014 4.17448e-015
rhumerus -31.9771 -3.74705 -80.5541
rradius 34.4405
rwrist -1.74652
rhand -14.4447 9.32144
rfingers 7.12502
rthumb 11.7003 -20.3318
lclavicle -1.59631e-014 4.17448e-015
lhumerus -40.624 7.13736 84.6217
lradius 35.6654
lwrist 5.57176
lhand -13.609 49.6711
lfingers 7.12502
lthumb 12.5061 79.2769
rfemur 8.47099 4.38794 37.0787
rtibia 18.4493
rfoot -15.4419 -7.94665
rtoes 13.0397
lfemur -30.0548 -2.94395 -11.4092
ltibia 42.2068
lfoot -9.03639 8.58775
ltoes -10.99
85
root 1.35992 17.7655 -12.3238 -4.35058 -1.6919 -7.67338
lowerback 14.9058 1.03984 5.11125
upperback -0.871272 2.6146 3.36749
thorax -9.27822 1.09715 0.151907
lowerneck -12.3586 -2.00282 -3.66673
upperneck 24.913 -2.14734 0.694497
head 10.0041 -1.25406 0.604994
rclavicle 1.64393e-014 4.27387e-014
rhumerus -31.7637 -3.43302 -80.7086
rradius 34.7381
rwrist -1.79414
rhand -14.696 9.51473
rfingers 7.12502
rthumb 11.4579 -20.1522
lclavicle 1.64393e-014 4.27387e-014
lhumerus -40.3306 7.24034 84.6927
lradius 35.7017
lwrist 5.66001
lhand -13.5982 50.2845
lfingers 7.12502
lthumb 12.5165 79.8897
rfemur 9.4335 4.29866 36.7312
rtibia 17.0347
rfoot -15.2495 -7.71409
rtoes 13.4385
lfemur -29.9929 -3.87407 -11.4061
ltibia 39.2735
lfoot -9.14938 9.83997
ltoes -9.98439
86
root 1.35517 17.7756 -12.1595 -4.4543 -2.19879 -7.92599
lowerback 14.7392 1.16977 5.26907
upperback -0.579624 2.79573 3.51926
thorax -8.85857 1.19311 0.19093
lowerneck -12.8583 -2.04198 -3.84518
upperneck 24.948 -2.13701 0.687109
head 10.1159 -1.26559 0.629242
rclavicle -2.63483e-014 -4.29375e-014
rhumerus -31.3326 -3.10479 -80.8017
rradius 35.012
rwrist -1.88804
rhand -14.7048 10.1207
rfingers 7.12502
rthumb 11.4495 -19.5467
lclavicle -2.63483e-014 -4.29375e-014
lhumerus -39.9313 7.51551 84.7791
lradius 35.6722
lwrist 5.74767
lhand -13.7531 49.4637
lfingers 7.12502
lthumb 12.3672 79.0779
rfemur 10.9148 4.60483 37.132
rtibia 15.6908
rfoot -14.9652 -7.75941
rtoes 13.5623
lfemur -29.3122 -4.52111 -10.7069
ltibia 36.4353
lfoot -9.62101 11.1088
ltoes -9.23987
87
root 1.36488 17.7798 -12.007 -4.25866 -2.05744 -7.46774
lowerback 14.4527 1.162 4.94398
upperback -0.512732 2.69228 3.40999
thorax -8.6329 1.16148 0.284514
lowerneck -13.2239 -2.03968 -3.92492
upperneck 25.0064 -2.07342 0.595436
head 10.2068 -1.25371 0.615038
rclavicle 2.74447e-014 6.36111e-015
rhumerus -31.0047 -2.86344 -80.8195
rradius 35.3678
rwrist -2.08858
rhand -14.2314 10.005
rfingers 7.12502
rthumb 11.906 -19.6365
lclavicle 2.74447e-014 6.36111e-015
lhumerus -39.7486 7.67929 84.8743
lradius 35.8275
lwrist 5.84029
lhand -13.7888 49.197
lfingers 7.12502
lthumb 12.3328 78.8132
rfemur 11.9979 4.09208 36.4408
rtibia 14.2516
rfoot -14.5805 -7.28488
rtoes 13.2919
lfemur -29.0589 -5.61237 -10.9621
ltibia 33.6204
lfoot -9.72392 12.2588
ltoes -9.77965
88
root 1.3694 17.7756 -11.8696 -3.98583 -2.2611 -7.67636
lowerback 14.4471 1.22649 5.20273
upperback -0.850812 2.84612 3.42841
thorax -8.98519 1.21287 0.125852
lowerneck -12.3194 -2.05105 -3.78336
upperneck 24.869 -2.1139 0.404707
head 9.97959 -1.28231 0.527522
rclavicle -8.57259e-015 -3.33958e-014
rhumerus -31.4624 -2.5906 -80.8743
rradius 35.7616
rwrist -2.27119
rhand -14.1092 9.41264
rfingers 7.12502
rthumb 12.0238 -20.222
lclavicle -8.57259e-015 -3.33958e-014
lhumerus -40.277 7.58049 84.7873
lradius 35.9476
lwrist 5.77291
lhand -13.4989 48.9103
lfingers 7.12502
lthumb 12.6123 78.5095
rfemur 13.0066 4.23763 36.6929
rtibia 12.7348
rfoot -13.8415 -7.28675
rtoes 12.8765
lfemur -29.0406 -6.63886 -10.2586
ltibia 31.0346
lfoot -9.6362 13.3941
ltoes -10.6258
89
root 1.37985 17.7863 -11.7115 -3.71788 -2.61425 -7.77939
lowerback 14.064 1.35649 5.45587
upperback -0.848359 3.02755 3.39837
thorax -8.74345 1.29358 -0.0765689
lowerneck -12.668 -1.96949 -3.5361
upperneck 24.8638 -2.01705 0.311458
head 10.0378 -1.22411 0.461768
rclavicle -3.54784e-014 -2.40529e-014
rhumerus -31.2658 -2.51613 -80.9228
rradius 35.8979
rwrist -2.47191
rhand -14.1594 9.5107
rfingers 7.12502
rthumb 11.9754 -20.1267
lclavicle -3.54784e-014 -2.40529e-014
lhumerus -40.1684 7.39129 84.8841
lradius 36.0109
lwrist 5.72884
lhand -13.4381 49.7972
lfingers 7.12502
lthumb 12.6709 79.3929
rfemur 14.1206 4.33879 36.727
rtibia 11.2644
rfoot -13.2315 -7.1019
rtoes 12.2127
lfemur -28.8749 -7.97446 -9.54067
ltibia 28.6247
lfoot -10.1063 14.6485
ltoes -10.19
